<?xml version="1.0" encoding="UTF-8" standalone="no"?>
<svg
   width="35.999996"
   height="36"
   viewBox="-4 0 35.999996 36"
   version="1.1"
   id="svg16"
   sodipodi:docname="map-marker-svgrepo-com.svg"
   xml:space="preserve"
   inkscape:version="1.2 (dc2aedaf03, 2022-05-15)"
   xmlns:inkscape="http://www.inkscape.org/namespaces/inkscape"
   xmlns:sodipodi="http://sodipodi.sourceforge.net/DTD/sodipodi-0.dtd"
   xmlns="http://www.w3.org/2000/svg"
   xmlns:svg="http://www.w3.org/2000/svg"><sodipodi:namedview
     id="namedview18"
     pagecolor="#ffffff"
     bordercolor="#000000"
     borderopacity="0.25"
     inkscape:showpageshadow="2"
     inkscape:pageopacity="0.0"
     inkscape:pagecheckerboard="0"
     inkscape:deskcolor="#d1d1d1"
     showgrid="false"
     inkscape:zoom="2.0599396"
     inkscape:cx="-91.750265"
     inkscape:cy="97.575679"
     inkscape:window-width="1920"
     inkscape:window-height="1043"
     inkscape:window-x="0"
     inkscape:window-y="1080"
     inkscape:window-maximized="1"
     inkscape:current-layer="svg16" /><!-- Uploaded to SVGRepo https://www.svgrepo.com --><title
     id="title2">map-marker</title><desc
     id="desc4">Created with Sketch.</desc><defs
     id="defs6"><style
       id="style635">.cls-1{fill:#262f63;}</style></defs><g
     id="g707"
     stroke="none"
     stroke-width="1"
     fill="none"
     fill-rule="evenodd"
     style="fill:#000080"><g
       id="g705"
       transform="translate(-125,-643)"
       style="fill:#ffcc00"><path
         d="m 139,643 c 9.94114,0 18,5.641 18,12.6 0,11.363 -18,23.4 -18,23.4 0,0 -18,-11.936 -18,-23.4 0,-6.959 8.05886,-12.6 18,-12.6 z"
         id="path703"
         fill="#ff6e6e"
         style="fill:#ffcc00;stroke-width:1.13389" /></g></g><ellipse
     style="fill:#ffffff;stroke:none;stroke-width:4.89367"
     id="ellipse709"
     cx="13.999998"
     cy="13.504443"
     rx="16.09782"
     ry="12.235282" /><g
     style="fill:none"
     id="g622"
     transform="matrix(0.12755069,0,0,0.12755069,-73.869079,1.6430312)"><path
       d="m 710.573,140.348 c 5.124,1.822 10.506,2.798 15.938,2.89 12.805,-0.635 24.878,-6.215 33.718,-15.586 8.84,-9.37 13.771,-21.813 13.771,-34.7511 0,-12.9384 -4.931,-25.3813 -13.771,-34.7519 -8.84,-9.3706 -20.913,-14.9511 -33.718,-15.5859 -5.437,0.0542 -10.825,1.0337 -15.938,2.8977 10.399,13.6696 16.005,30.4376 15.938,47.6708 0.095,17.0994 -5.519,33.7324 -15.938,47.2164 z M 726.511,15.9875 c 11.696,-0.0263 23.242,2.6621 33.744,7.8572 10.502,5.1952 19.68,12.7579 26.824,22.1037 7.144,9.3459 12.063,20.2245 14.376,31.7949 2.314,11.5705 1.96,23.5227 -1.034,34.9337 -2.995,11.41 -8.549,21.972 -16.233,30.871 -7.685,8.898 -17.294,15.894 -28.085,20.447 -10.791,4.552 -22.475,6.54 -34.149,5.808 -11.674,-0.731 -23.024,-4.162 -33.175,-10.027 -11.521,6.708 -24.595,10.225 -37.897,10.193 -13.302,-0.032 -26.359,-3.611 -37.849,-10.374 -11.49,-6.763 -21.005,-16.471 -27.581,-28.14 -6.576,-11.669 -9.98,-24.884 -9.867,-38.3075 -0.096,-10.0747 1.783,-20.0692 5.529,-29.4081 3.746,-9.3389 9.285,-17.8379 16.299,-25.0079 7.014,-7.1699 15.363,-12.8691 24.568,-16.7697 9.205,-3.9006 19.084,-5.9254 29.067,-5.958 13.25,-0.0976 26.278,3.4299 37.7,10.2075 11.44,-6.7823 24.487,-10.3097 37.755,-10.2075 z m -59.557,29.4896 c 8.738,3.179 16.331,8.9315 21.794,16.5133 5.433,-7.621 13.046,-13.3829 21.817,-16.5133 -5.993,-7.7627 -13.398,-14.3013 -21.817,-19.2658 -8.411,4.968 -15.807,11.5063 -21.794,19.2658 z m 0,94.8879 c -10.419,-13.485 -16.033,-30.118 -15.938,-47.2175 -0.068,-17.2334 5.539,-34.0011 15.938,-47.6704 -5.114,-1.8632 -10.502,-2.8432 -15.938,-2.8982 -12.805,0.6349 -24.878,6.2158 -33.718,15.5864 -8.841,9.3706 -13.771,21.813 -13.771,34.7514 0,12.9383 4.93,25.3813 13.771,34.7523 8.84,9.37 20.913,14.951 33.718,15.586 5.433,-0.079 10.817,-1.056 15.938,-2.89 z m 21.794,-16.53 c -5.396,7.652 -13.01,13.428 -21.794,16.53 5.895,7.89 13.308,14.498 21.794,19.428 8.43,-5.017 15.835,-11.611 21.817,-19.428 -8.79,-3.104 -16.411,-8.878 -21.817,-16.53 z m 0,-61.8362 c -6.246,9.0412 -9.582,19.8037 -9.554,30.825 -0.107,11.0912 3.234,21.9372 9.554,31.0112 6.409,-9.031 9.767,-19.904 9.577,-31.0112 0.11,-11.0374 -3.242,-21.8271 -9.577,-30.825 z"
       fill="#ffffff"
       id="path586"
       sodipodi:nodetypes="cccsscccccssccccccssscscsccccccccccccccsscccccccccccc" /><path
       fill-rule="evenodd"
       clip-rule="evenodd"
       d="m 666.986,140.381 c -5.118,1.835 -10.5,2.811 -15.93,2.89 -12.808,-0.635 -24.882,-6.217 -33.724,-15.589 -8.842,-9.372 -13.773,-21.817 -13.773,-34.7571 0,-12.9405 4.931,-25.3853 13.773,-34.7574 8.842,-9.3721 20.916,-14.9535 33.724,-15.5884 5.434,0.0657 10.82,1.0533 15.93,2.9219 5.985,-7.7612 13.381,-14.2994 21.793,-19.2653 -11.419,-6.7842 -24.448,-10.315 -37.699,-10.2158 -20.233,0 -39.638,8.1114 -53.945,22.5498 -14.307,14.4385 -22.344,34.0211 -22.344,54.4401 0,20.4192 8.037,40.0022 22.344,54.4402 14.307,14.438 33.712,22.55 53.945,22.55 13.24,0.023 26.249,-3.5 37.699,-10.208 -8.487,-4.928 -15.899,-11.536 -21.793,-19.427 z m 21.793,-78.3825 c 5.432,-7.6247 13.045,-13.39 21.818,-16.5217 10.395,13.6686 16,30.4324 15.938,47.6625 0.097,17.1017 -5.518,33.7387 -15.938,47.2257 -8.785,-3.104 -16.405,-8.872 -21.818,-16.514 6.246,-9.081 9.594,-19.872 9.594,-30.9261 0,-11.0546 -3.348,-21.8452 -9.594,-30.9264"
       fill="#ffd400"
       id="path598" /><path
       fill-rule="evenodd"
       clip-rule="evenodd"
       d="m 726.535,16.0116 c 11.698,-0.0273 23.247,2.661 33.752,7.8572 10.505,5.1961 19.685,12.7608 26.83,22.1091 7.145,9.3484 12.065,20.23 14.377,31.8034 2.313,11.5733 1.957,23.5287 -1.04,34.9407 -2.996,11.413 -8.553,21.977 -16.242,30.876 -7.688,8.899 -17.301,15.894 -28.096,20.444 -10.795,4.551 -22.482,6.535 -34.158,5.8 -11.677,-0.736 -23.029,-4.171 -33.179,-10.042 8.43,-5.02 15.837,-11.613 21.825,-19.427 5.123,1.829 10.505,2.807 15.938,2.898 12.821,-0.614 24.915,-6.186 33.773,-15.56 8.858,-9.374 13.8,-21.829 13.8,-34.782 0,-12.9529 -4.942,-25.4089 -13.8,-34.7826 -8.858,-9.3737 -20.952,-14.9452 -33.773,-15.5593 -5.436,0.0647 -10.823,1.0465 -15.938,2.9057 -5.993,-7.7676 -13.401,-14.3091 -21.825,-19.2737 11.449,-6.7618 24.491,-10.2876 37.756,-10.2075"
       fill="#00468f"
       id="path600" /><path
       fill-rule="evenodd"
       clip-rule="evenodd"
       d="m 688.779,62.0146 c -5.46,-7.5865 -13.053,-13.3427 -21.794,-16.5217 -10.391,13.6702 -15.993,30.4336 -15.929,47.6625 -0.1,17.1006 5.512,33.7376 15.929,47.2256 8.781,-3.1 16.395,-8.869 21.794,-16.514 -6.218,-9.092 -9.548,-19.878 -9.548,-30.926 0,-11.0477 3.33,-21.834 9.548,-30.9264"
       fill="#00468f"
       id="path602" /></g></svg>
