<?xml version="1.0" encoding="UTF-8" standalone="no"?>
<svg
   width="36"
   height="36"
   viewBox="-4 0 36 36"
   version="1.1"
   id="svg16"
   sodipodi:docname="map-marker-svgrepo-com.svg"
   xml:space="preserve"
   inkscape:version="1.2 (dc2aedaf03, 2022-05-15)"
   xmlns:inkscape="http://www.inkscape.org/namespaces/inkscape"
   xmlns:sodipodi="http://sodipodi.sourceforge.net/DTD/sodipodi-0.dtd"
   xmlns="http://www.w3.org/2000/svg"
   xmlns:svg="http://www.w3.org/2000/svg"><sodipodi:namedview
     id="namedview18"
     pagecolor="#ffffff"
     bordercolor="#000000"
     borderopacity="0.25"
     inkscape:showpageshadow="2"
     inkscape:pageopacity="0.0"
     inkscape:pagecheckerboard="0"
     inkscape:deskcolor="#d1d1d1"
     showgrid="false"
     inkscape:zoom="2.0599396"
     inkscape:cx="-91.750265"
     inkscape:cy="97.575679"
     inkscape:window-width="1920"
     inkscape:window-height="1043"
     inkscape:window-x="0"
     inkscape:window-y="1080"
     inkscape:window-maximized="1"
     inkscape:current-layer="svg16" /><!-- Uploaded to SVGRepo https://www.svgrepo.com --><title
     id="title2">map-marker</title><desc
     id="desc4">Created with Sketch.</desc><defs
     id="defs6"><style
       id="style635">.cls-1{fill:#262f63;}</style></defs><g
     id="Vivid.JS"
     stroke="none"
     stroke-width="1"
     fill="none"
     fill-rule="evenodd"
     style="fill:#000080"><g
       id="Vivid-Icons"
       transform="translate(-125,-643)"
       style="fill:#000080"><path
         d="m 139,643 c 9.94114,0 18,5.641 18,12.6 0,11.363 -18,23.4 -18,23.4 0,0 -18,-11.936 -18,-23.4 0,-6.959 8.05886,-12.6 18,-12.6 z"
         id="Shape"
         fill="#ff6e6e"
         style="fill:#ffff00;stroke-width:1.13389" /></g></g><ellipse
     style="fill:#ffffff;stroke:none;stroke-width:4.89367"
     id="path406"
     cx="14"
     cy="13.504443"
     rx="16.09782"
     ry="12.235282" /><g
     style="fill:none"
     id="g584"
     transform="matrix(0.06818725,0,0,0.06818725,-0.85876758,7.0593859)"><path
       d="M 435.066,72.6667 C 433.717,62.6057 430.514,52.813 425.663,43.8992 416.074,26.2745 400.173,12.3859 381.398,5.326 372.016,1.79714 362.013,0 351.995,0 328.667,0 306.061,9.99117 290.281,27.1775 264.157,-1.47 220.437,-8.20712 186.882,11.2125 178.124,16.2834 170.298,22.9463 163.88,30.7761 147.931,13.3128 125.661,2.22244 102.074,0.309699 81.2481,-1.38058 60.1675,3.98687 42.7067,15.4677 25.9825,26.4643 12.9371,42.7477 5.92618,61.5108 -1.36368,81.0199 -1.94338,102.828 4.27206,122.703 c 5.96044,19.056 18.05574,35.958 34.08684,47.832 16.6283,12.318 37.1031,18.861 57.7849,18.49 7.2372,-0.128 14.5932,-0.883 21.6082,-2.656 2.133,-0.539 4.171,-1.182 6.095,-2.018 -2.545,1.028 -5.321,1.599 -8.233,1.599 -12.172,0 -22.0396,-9.875 -22.0396,-22.056 0,-10.94 7.9636,-20.018 18.4046,-21.751 -2.748,0.366 -5.472,1.038 -8.393,1.572 -10.9313,1.998 -22.4011,0.803 -32.2713,-4.31 C 52.919,129.879 41.9875,109.513 44.278,88.9021 46.5423,68.5184 61.5405,51.0747 81.3244,45.7444 c 10.877,-2.9313 22.6456,-2.1047 32.9646,2.4405 11.04,4.8636 20.263,14.0631 26.4,24.3662 1.539,2.5845 2.862,5.2976 3.936,8.1089 1.068,2.783 1.7,5.699 3.145,8.3271 2.898,5.2671 7.944,9.206 13.76,10.7153 11.501,2.9856 22.888,-3.8299 26.425,-14.9355 0.978,-3.0643 1.104,-6.1853 1.76,-9.3151 1.145,-5.4656 3.47,-10.6629 6.774,-15.1645 6.505,-8.8636 16.628,-14.7436 27.542,-16.0042 20.937,-2.4187 40.555,12.6345 43.761,33.4762 0.841,5.4765 1.672,10.3401 5.372,14.7545 3.899,4.6455 9.655,7.5182 15.709,7.8272 6.176,0.314 12.295,-2.0257 16.672,-6.403 4.055,-4.0501 5.823,-9.0795 6.477,-14.6476 2.491,-21.171 22.261,-36.931 43.388,-35.1273 20.934,1.7863 36.802,20.3837 35.97,41.3693 -0.098,2.434 -0.221,4.7219 -0.155,6.9683 0.026,-12.2289 9.938,-22.135 22.166,-22.135 12.241,0 22.166,9.9323 22.166,22.183 0,0.0327 -0.002,0.0632 -0.002,0.096 0.074,-0.8943 0.128,-1.795 0.163,-2.7045 0.227,-5.7644 0.116,-11.5506 -0.652,-17.2735 z"
       fill="#ffde00"
       id="path550" /><path
       d="m 435.556,92.5492 c 0,12.2528 -9.924,22.1828 -22.166,22.1828 -12.245,0 -22.17,-9.93 -22.17,-22.1828 0,-12.2529 9.925,-22.183 22.17,-22.183 12.242,0 22.166,9.9301 22.166,22.183 z"
       fill="#000000"
       id="path552" /><path
       d="m 137.651,163.894 c 0,12.181 -9.865,22.057 -22.037,22.057 -12.172,0 -22.0417,-9.876 -22.0417,-22.057 0,-12.18 9.8697,-22.056 22.0417,-22.056 12.172,0 22.037,9.876 22.037,22.056 z"
       fill="#000000"
       id="path554" /></g></svg>
