<?xml version="1.0" encoding="UTF-8" standalone="no"?>
<svg
   width="36"
   height="36"
   viewBox="-4 0 36 36"
   version="1.1"
   id="svg16"
   sodipodi:docname="tst.svg"
   xml:space="preserve"
   inkscape:version="1.2 (dc2aedaf03, 2022-05-15)"
   xmlns:inkscape="http://www.inkscape.org/namespaces/inkscape"
   xmlns:sodipodi="http://sodipodi.sourceforge.net/DTD/sodipodi-0.dtd"
   xmlns:xlink="http://www.w3.org/1999/xlink"
   xmlns="http://www.w3.org/2000/svg"
   xmlns:svg="http://www.w3.org/2000/svg"><sodipodi:namedview
     id="namedview18"
     pagecolor="#ffffff"
     bordercolor="#000000"
     borderopacity="0.25"
     inkscape:showpageshadow="2"
     inkscape:pageopacity="0.0"
     inkscape:pagecheckerboard="0"
     inkscape:deskcolor="#d1d1d1"
     showgrid="false"
     inkscape:zoom="2.0599396"
     inkscape:cx="-91.750265"
     inkscape:cy="97.575679"
     inkscape:window-width="1920"
     inkscape:window-height="1043"
     inkscape:window-x="0"
     inkscape:window-y="1080"
     inkscape:window-maximized="1"
     inkscape:current-layer="svg16" /><!-- Uploaded to SVGRepo https://www.svgrepo.com --><title
     id="title2">map-marker</title><desc
     id="desc4">Created with Sketch.</desc><defs
     id="defs6"><style
       id="style635">.cls-1{fill:#262f63;}</style><linearGradient
       id="linearGradient5862"><stop
         style="stop-color:#f9e295;stop-opacity:1;"
         offset="0"
         id="stop5864" /><stop
         id="stop5876"
         offset="0.125"
         style="stop-color:#f7dd84;stop-opacity:1;" /><stop
         id="stop5874"
         offset="0.20580582"
         style="stop-color:#ffffff;stop-opacity:1;" /><stop
         id="stop5870"
         offset="0.30112621"
         style="stop-color:#f4ce51;stop-opacity:1;" /><stop
         style="stop-color:#f9e7aa;stop-opacity:1;"
         offset="0.3412039"
         id="stop5872" /><stop
         style="stop-color:#efbb0e;stop-opacity:1;"
         offset="1"
         id="stop5866" /></linearGradient><linearGradient
       id="linearGradient5762"><stop
         style="stop-color:#2d3335;stop-opacity:1;"
         offset="0"
         id="stop5764" /><stop
         id="stop5770"
         offset="0.5"
         style="stop-color:#4c464a;stop-opacity:1;" /><stop
         style="stop-color:#384042;stop-opacity:1;"
         offset="1"
         id="stop5766" /></linearGradient><linearGradient
       id="linearGradient5745"><stop
         style="stop-color:#d0e9f2;stop-opacity:0;"
         offset="0"
         id="stop5747" /><stop
         id="stop5753"
         offset="0.83932751"
         style="stop-color:#d0e9f2;stop-opacity:0;" /><stop
         style="stop-color:#d0e9f2;stop-opacity:0.28185329;"
         offset="0.94308507"
         id="stop5755" /><stop
         style="stop-color:#d0e9f2;stop-opacity:1;"
         offset="1"
         id="stop5749" /></linearGradient><radialGradient
       inkscape:collect="always"
       xlink:href="#linearGradient5745"
       id="radialGradient5751"
       cx="128"
       cy="86"
       fx="128"
       fy="86"
       r="47"
       gradientUnits="userSpaceOnUse"
       gradientTransform="matrix(1.0212766,0,0,-1.0212766,-212.7234,173.82979)" /><linearGradient
       inkscape:collect="always"
       xlink:href="#linearGradient5762"
       id="linearGradient5768"
       x1="123"
       y1="150.375"
       x2="133"
       y2="150.375"
       gradientUnits="userSpaceOnUse"
       gradientTransform="matrix(-1,0,0,1,46,0)" /><linearGradient
       inkscape:collect="always"
       xlink:href="#linearGradient5762"
       id="linearGradient5778"
       x1="128"
       y1="134.35938"
       x2="130.875"
       y2="143.35938"
       gradientUnits="userSpaceOnUse"
       gradientTransform="translate(-210)" /><linearGradient
       y2="150.375"
       x2="133"
       y1="150.375"
       x1="123"
       gradientTransform="matrix(-2,0,0,1.7699115,174,-86.65044)"
       gradientUnits="userSpaceOnUse"
       id="linearGradient5798"
       xlink:href="#linearGradient5762"
       inkscape:collect="always" /><linearGradient
       inkscape:collect="always"
       xlink:href="#linearGradient5862"
       id="linearGradient5868"
       x1="120"
       y1="186.5"
       x2="136"
       y2="186.5"
       gradientUnits="userSpaceOnUse"
       gradientTransform="translate(-210)" /><linearGradient
       y2="186.5"
       x2="136"
       y1="186.5"
       x1="120"
       gradientUnits="userSpaceOnUse"
       id="linearGradient5899"
       xlink:href="#linearGradient5862"
       inkscape:collect="always"
       gradientTransform="translate(-210,67)" /></defs><g
     id="g4614"
     stroke="none"
     stroke-width="1"
     fill="none"
     fill-rule="evenodd"
     style="fill:#464448;fill-opacity:1"
     inkscape:export-filename="osm.svg"
     inkscape:export-xdpi="96"
     inkscape:export-ydpi="96"><g
       id="g4612"
       transform="translate(-125,-643)"
       style="fill:#464448;fill-opacity:1"><path
         d="m 139,643 c 9.94114,0 18,5.641 18,12.6 0,11.363 -18,23.4 -18,23.4 0,0 -18,-11.936 -18,-23.4 0,-6.959 8.05886,-12.6 18,-12.6 z"
         id="path4610"
         fill="#ff6e6e"
         style="fill:#464448;fill-opacity:1;stroke-width:1.13389" /></g></g><ellipse
     style="fill:#ffffff;stroke:none;stroke-width:4.89367"
     id="ellipse4616"
     cx="14.000001"
     cy="13.504443"
     rx="16.09782"
     ry="12.235282" /><g
     id="g6060"
     transform="matrix(0.11740129,0,0,0.1221156,23.731633,-2.5842871)"><path
       sodipodi:nodetypes="csssccsssc"
       id="path5604"
       d="m -82,136 c -27.61424,0 -50,-22.38576 -50,-50 0,-27.61424 22.38576,-50 50,-50 27.61424,0 50,22.38576 50,50 0,27.61424 -22.38576,50 -50,50 z m 0,-3 c 26.50967,0 48,-20.49033 48,-47 0,-26.50967 -21.49033,-47 -48,-47 -26.50967,0 -48,20.49033 -48,47 0,26.50967 21.49033,47 48,47 z"
       style="fill:#2d3335;fill-opacity:1;stroke:none" /><path
       id="path5604-2"
       d="m -82.00007,136 c -27.61424,0 -50,-22.38576 -50,-50 0,-0.168279 -0.002,-0.332113 0,-0.5 0.27054,27.38199 22.55404,49.5 50,49.5 27.44596,0 49.72946,-22.11801 50,-49.5 0.002,0.167887 0,0.331721 0,0.5 0,27.61424 -22.38576,50 -50,50 z m -48,-50.5 c -0.002,-0.16719 0,-0.332325 0,-0.5 0,-26.50967 21.49033,-47 48,-47 26.50967,0 48,20.49033 48,47 0,0.167675 0.002,0.33281 0,0.5 -0.26948,-26.26576 -21.65801,-46.5 -48,-46.5 -26.34199,0 -47.73051,20.23424 -48,46.5 z"
       style="fill:#9eaaac;fill-opacity:1;stroke:none" /><path
       sodipodi:nodetypes="csssc"
       id="path5604-9"
       d="m -82,134 c 26.50967,0 48,-21.49033 48,-48 0,-26.50967 -21.49033,-48 -48,-48 -26.50967,0 -48,21.49033 -48,48 0,26.50967 21.49033,48 48,48 z"
       style="fill:#d0e9f2;fill-opacity:0.475936;stroke:none" /><path
       sodipodi:nodetypes="csssc"
       id="path5604-9-1"
       d="m -82,134 c 26.50967,0 48,-21.49034 48,-48 0,-26.509675 -21.49033,-48 -48,-48 -26.50967,0 -48,21.490325 -48,48 0,26.50966 21.49033,48 48,48 z"
       style="fill:url(#radialGradient5751);fill-opacity:1;stroke:none" /><path
       id="path5604-9-1-8-8"
       d="m -96.4375,130.71875 -0.84375,5 C -92.45117,137.2009 -87.31584,138 -82,138 c 5.31584,0 10.45117,-0.7991 15.28125,-2.28125 l -0.84375,-5 C -72.11472,132.1879 -76.95892,133 -82,133 c -5.04108,0 -9.88528,-0.8121 -14.4375,-2.28125 z"
       style="fill:url(#linearGradient5778);fill-opacity:1;stroke:none" /><path
       id="rect5757"
       d="m -82,136.25 c 1.75679,0 3.4314,0.29816 5,0.8125 v 26.625 c -1.5686,0.51434 -3.24321,0.8125 -5,0.8125 -1.75679,0 -3.4314,-0.29816 -5,-0.8125 v -26.625 c 1.5686,-0.51434 3.24321,-0.8125 5,-0.8125 z"
       style="fill:url(#linearGradient5768);fill-opacity:1;stroke:none" /><path
       sodipodi:nodetypes="cccsccc"
       id="rect5757-8-7"
       d="m -82,150.5 c 3.51358,0 5.6128,0.65272 8,2.43805 v 67.1239 c -3.1372,0.91033 -4.48642,1.43805 -8,1.43805 -3.51358,0 -4.8628,-0.52772 -8,-1.43805 v -67.1239 c 2.6372,-1.78533 4.48642,-2.43805 8,-2.43805 z"
       style="fill:url(#linearGradient5868);fill-opacity:1;stroke:none" /><path
       sodipodi:nodetypes="cccsccc"
       id="rect5757-8"
       d="m -82,154.5 c 3.51358,0 7.2378,0.77772 10,2.43805 v 65.1239 c -2.0122,1.78533 -6.48642,2.43805 -10,2.43805 -3.51358,0 -7.8628,-0.15272 -10,-2.43805 v -65.1239 c 1.8872,-1.66033 6.48642,-2.43805 10,-2.43805 z"
       style="fill:url(#linearGradient5798);fill-opacity:1;stroke:none" /><path
       sodipodi:nodetypes="cccsccc"
       id="rect5757-8-7-7"
       d="m -82,217.5 c 3.51358,0 5.8628,0.77772 8,2.43805 v 5.1239 c -2.3872,1.53533 -4.48642,2.43805 -8,2.43805 -3.51358,0 -5.7378,-0.90272 -8,-2.43805 v -5.1239 c 2.3872,-1.91033 4.48642,-2.43805 8,-2.43805 z"
       style="fill:url(#linearGradient5899);fill-opacity:1;stroke:none" /><path
       id="rect5757-8-7-7-0"
       d="m -82,221.5 c -3.51358,0 -5.6128,0.27717 -8,2.4375 v 1.125 c 2.2622,1.53533 4.48642,2.4375 8,2.4375 3.51358,0 5.6128,-0.90217 8,-2.4375 v -1.125 c -2.5122,-2.03533 -4.48642,-2.4375 -8,-2.4375 z"
       style="fill:#e0bb41;fill-opacity:1;stroke:none" /></g></svg>
