<?xml version="1.0" encoding="UTF-8" standalone="no"?>
<svg
   width="36"
   height="36"
   viewBox="-4 0 36 36"
   version="1.1"
   id="svg16"
   sodipodi:docname="tst.svg"
   xml:space="preserve"
   inkscape:version="1.2 (dc2aedaf03, 2022-05-15)"
   xmlns:inkscape="http://www.inkscape.org/namespaces/inkscape"
   xmlns:sodipodi="http://sodipodi.sourceforge.net/DTD/sodipodi-0.dtd"
   xmlns="http://www.w3.org/2000/svg"
   xmlns:svg="http://www.w3.org/2000/svg"><sodipodi:namedview
     id="namedview18"
     pagecolor="#ffffff"
     bordercolor="#000000"
     borderopacity="0.25"
     inkscape:showpageshadow="2"
     inkscape:pageopacity="0.0"
     inkscape:pagecheckerboard="0"
     inkscape:deskcolor="#d1d1d1"
     showgrid="false"
     inkscape:zoom="2.0599396"
     inkscape:cx="-91.750265"
     inkscape:cy="97.575679"
     inkscape:window-width="1920"
     inkscape:window-height="1043"
     inkscape:window-x="0"
     inkscape:window-y="1080"
     inkscape:window-maximized="1"
     inkscape:current-layer="svg16"
     showguides="false" /><!-- Uploaded to SVGRepo https://www.svgrepo.com --><title
     id="title2">map-marker</title><desc
     id="desc4">Created with Sketch.</desc><defs
     id="defs6"><style
       id="style635">.cls-1{fill:#262f63;}</style><linearGradient
       id="paint0_linear_1758_246"
       x1="1.56109e-05"
       y1="105.001"
       x2="214.064"
       y2="105.001"
       gradientUnits="userSpaceOnUse"
       gradientTransform="matrix(0.114405,0,0,0.114405,1.7550519,1.4919296)"><stop
         stop-color="#32B5AB"
         id="stop320" /><stop
         offset="1"
         stop-color="#AECC53"
         id="stop322" /></linearGradient></defs><g
     id="g350"
     stroke="none"
     stroke-width="1"
     fill="none"
     fill-rule="evenodd"
     style="fill:#000080"><g
       id="g348"
       transform="translate(-125,-643)"
       style="fill:#70c07f;fill-opacity:1"><path
         d="m 139,643 c 9.94114,0 18,5.641 18,12.6 0,11.363 -18,23.4 -18,23.4 0,0 -18,-11.936 -18,-23.4 0,-6.959 8.05886,-12.6 18,-12.6 z"
         id="path346"
         fill="#ff6e6e"
         style="fill:#70c07f;fill-opacity:1;stroke-width:1.13389" /></g></g><ellipse
     style="fill:#ffffff;stroke:none;stroke-width:4.89367"
     id="ellipse352"
     cx="14"
     cy="13.504443"
     rx="16.09782"
     ry="12.235282" /><path
     d="m 13.315442,1.7851796 c -0.553,0.452736 -0.6324,1.265815 -0.1789,1.81743 0.45416,0.549636 1.26941,0.629022 1.81912,0.176436 0.15754,-0.128969 0.26577,-0.290715 0.34482,-0.463889 1.03239,0.146049 2.01238,0.447781 2.91973,0.882714 -0.44504,0.689347 -0.4257,1.609495 0.12367,2.277655 0.49343,0.600065 1.2715,0.821554 1.97967,0.642167 0.16165,0.168655 0.32227,0.338307 0.46906,0.517705 -0.25215,0.290715 -0.25742,0.724515 0.0135,1.008732 0.21084,0.22333 0.52672,0.285898 0.80106,0.190839 0.40785,0.710523 0.72087,1.4710654 0.91821,2.2714304 -0.22606,0.595409 -0.14472,1.275844 0.24586,1.809521 0.004,0.109634 0.0183,0.217404 0.0183,0.32769 0,0.234187 -0.01,0.468832 -0.0279,0.702332 -0.11681,0.03741 -0.22812,0.09438 -0.32262,0.183963 -0.34024,0.321364 -0.35386,0.857695 -0.0332,1.194732 0.32194,0.339897 0.85827,0.354541 1.19851,0.03318 0.33921,-0.321363 0.35385,-0.855291 0.0318,-1.194846 -0.13031,-0.136713 -0.29802,-0.206386 -0.47135,-0.236818 0.0141,-0.195175 0.0215,-0.390922 0.0236,-0.586554 0.73631,0.535072 1.77042,0.490454 2.45662,-0.157078 0.7712,-0.73106 0.80289,-1.94786 0.072,-2.718136 -0.50727,-0.5350954 -1.24862,-0.7050214 -1.91388,-0.5201084 -0.47604,-1.421345 -1.25171,-2.70299 -2.24989,-3.779518 0.36358,-0.67253 0.30958,-1.524607 -0.20627,-2.1515 -0.68197,-0.82764 -1.90633,-0.947422 -2.73611,-0.266415 -0.0486,0.04011 -0.0866,0.08743 -0.13031,0.131085 -0.95013,-0.46644 -1.97921,-0.791053 -3.06399,-0.950946 0.0384,-0.335214 -0.0503,-0.683977 -0.28224,-0.964523 -0.25512,-0.309772 -0.62568,-0.470527 -0.99921,-0.470527 -0.28876,0 -0.57924,0.09591 -0.8196,0.29325 z m 7.41447,5.183054 c 0.12184,-0.06215 0.23957,-0.136165 0.34997,-0.226442 0.0888,-0.07302 0.16566,-0.154962 0.23796,-0.239141 0.93572,1.026945 1.66368,2.242899 2.11123,3.5890914 -0.15365,0.08023 -0.30203,0.174456 -0.43428,0.29918 -0.0735,0.0695 -0.13386,0.147194 -0.19392,0.224612 -0.20787,-0.7074354 -0.49789,-1.3837744 -0.86707,-2.0194314 0.23727,-0.290578 0.23967,-0.713075 -0.0254,-0.994043 -0.20845,-0.217255 -0.51185,-0.278988 -0.77979,-0.193802 -0.12424,-0.152982 -0.26427,-0.294249 -0.3987,-0.440024 z M 8.4396219,2.2465286 c -0.26921,0.223613 -0.30842,0.621395 -0.0856,0.891346 0.22166,0.26995 0.62053,0.309065 0.89116,0.08744 0.27133,-0.222346 0.31025,-0.620693 0.087,-0.890781 -0.12512,-0.152694 -0.30686,-0.231662 -0.4903,-0.231662 -0.14154,0 -0.28408,0.04718 -0.40226,0.143657 z m 9.1791601,1.15e-4 c -0.27205,0.22192 -0.30969,0.62098 -0.088,0.891204 0.22298,0.269378 0.6218,0.308642 0.89271,0.08744 0.26954,-0.223616 0.30878,-0.620411 0.0879,-0.890358 -0.12596,-0.152553 -0.30844,-0.231662 -0.49206,-0.231662 -0.14117,0 -0.28315,0.0469 -0.40053,0.143376 z M 6.1688219,3.9496546 c -0.79518,0.653893 -0.92866,1.802885 -0.3363,2.62572 -0.68281,0.816886 -1.21954,1.731543 -1.61953,2.706788 -0.0418,-0.110744 -0.0897,-0.220504 -0.16915,-0.316845 -0.38754,-0.470948 -1.08577,-0.539465 -1.5571,-0.152696 -0.47304,0.38916 -0.54042,1.083598 -0.15245,1.5551074 0.35938,0.434796 0.97452,0.508816 1.4402,0.213869 -0.12569,0.479997 -0.22789,0.96719 -0.28437,1.466968 -0.3663,0.0363 -0.72638,0.17671 -1.03212,0.427875 -0.82265,0.673102 -0.93956,1.884994 -0.2644,2.70482 0.67374,0.819597 1.88818,0.938121 2.71012,0.26439 0.0354,-0.02906 0.0623,-0.06441 0.095,-0.09541 0.32371,1.398258 0.95498,2.676162 1.82716,3.745963 -0.14719,0.237734 -0.13205,0.549487 0.0702,0.761708 0.19999,0.211306 0.50884,0.243912 0.754,0.112003 0.12088,0.113718 0.23793,0.23167 0.3646,0.338639 -0.24487,0.08374 -0.47657,0.215996 -0.67671,0.405108 -0.74861,0.707251 -0.78174,1.888025 -0.0718,2.634404 0.7107,0.748323 1.89201,0.778182 2.64063,0.0715 0.1255401,-0.118753 0.2233501,-0.253865 0.3082801,-0.394812 1.12893,0.421582 2.32865,0.642613 3.55132,0.656113 -0.22023,0.466429 -0.15135,1.035937 0.22561,1.433265 0.49183,0.517454 1.30879,0.53942 1.82613,0.04828 0.4797,-0.451785 0.51482,-1.173452 0.13431,-1.690562 1.37103,-0.27606 2.67353,-0.824288 3.83223,-1.614712 0.005,0.0055 0.008,0.01213 0.0134,0.01773 0.73826,0.776925 1.96743,0.809873 2.74732,0.07333 0.77865,-0.736196 0.81159,-1.965135 0.0723,-2.742173 -0.73688,-0.776353 -1.96742,-0.809301 -2.74606,-0.07207 -0.67202,0.63632 -0.78597,1.638851 -0.32835,2.401132 -1.19324,0.811131 -2.54356,1.358902 -3.96379,1.600983 -0.47684,-0.281207 -1.08536,-0.247458 -1.51277,0.139345 -0.0609,0.001 -0.12127,0.008 -0.18248,0.008 -1.2052,0 -2.37972,-0.237162 -3.49196,-0.648905 0.0899,-0.279835 0.11975,-0.575 0.0736,-0.863644 0.1489,0.05938 0.29837,0.117609 0.4511,0.169205 -0.006,0.174697 0.0548,0.351681 0.18528,0.488853 0.25817,0.272512 0.68916,0.283495 0.96149,0.02574 0.0597,-0.05663 0.10163,-0.123786 0.13616,-0.193459 0.44827,0.07837 0.90587,0.126303 1.37394,0.133396 0.0245,0.06247 0.0602,0.121727 0.1096,0.173438 0.20112,0.213022 0.53965,0.223662 0.75324,0.02014 0.21428,-0.203413 0.22298,-0.541022 0.022,-0.753701 -0.20399,-0.214509 -0.54285,-0.223547 -0.75588,-0.02082 -0.0553,0.05217 -0.0958,0.113833 -0.12378,0.179616 -0.45056,-0.0071 -0.89133,-0.0532 -1.32289,-0.129278 -0.0197,-0.133168 -0.0668,-0.263246 -0.16717,-0.368956 -0.25789,-0.271369 -0.68916,-0.283381 -0.95979,-0.02448 -0.0296,0.0278 -0.0439,0.06361 -0.0674,0.09519 -0.25846,-0.08615 -0.51167,-0.183734 -0.75867,-0.294021 -0.0821,-0.173552 -0.18443,-0.340355 -0.3239801,-0.487365 -0.38584,-0.405222 -0.91054,-0.59216 -1.42945,-0.572025 -0.21443,-0.166574 -0.42083,-0.343215 -0.61854,-0.529352 0.10305,-0.226865 0.0661,-0.502467 -0.11649,-0.695697 -0.18074,-0.190942 -0.45421,-0.243225 -0.68591,-0.15479 -0.89284,-1.098516 -1.52696,-2.423097 -1.80961,-3.87627 0.41173,-0.675447 0.38286,-1.557852 -0.14411,-2.205613 0.0753,-1.351409 0.45506,-2.631211 1.07644,-3.7643934 0.18146,0.03278 0.37325,-0.0039 0.52625,-0.130376 0.26553,-0.217255 0.30758,-0.59597 0.11268,-0.872269 0.15442,-0.209339 0.31804,-0.410783 0.48973,-0.605294 0.44204,0.0055 0.88804,-0.130102 1.25661,-0.431833 0.38372,-0.314854 0.60778,-0.74655 0.67841,-1.200406 0.7204601,-0.445814 1.5071501,-0.790767 2.3481901,-1.002932 0.0256,0.05099 0.0429,0.10467 0.0807,0.15058 0.26497,0.324327 0.74241,0.371359 1.06695,0.105093 0.32357,-0.265706 0.37098,-0.743576 0.1039,-1.065225 -0.26553,-0.322634 -0.74424,-0.369105 -1.06794,-0.103971 -0.1649,0.135329 -0.25534,0.325036 -0.27148,0.521252 -0.79489,0.199453 -1.54593,0.507958 -2.2392001,0.908146 -0.0361,-0.369814 -0.17806,-0.733278 -0.43143,-1.04192 -0.38499,-0.466578 -0.94253,-0.708281 -1.50416,-0.708419 -0.43411,0 -0.87049,0.144368 -1.23185,0.441009 z m -2.27403,8.1030074 c 0.22506,-1.916729 0.98925,-3.7023744 2.20581,-5.1759904 0.23411,0.212885 0.50686,0.362195 0.79928,0.440162 -0.11649,0.139986 -0.2266,0.2852 -0.33489,0.43197 -0.20409,-0.06639 -0.43397,-0.04153 -0.61245,0.105379 -0.27742,0.226018 -0.31705,0.635805 -0.0894,0.912666 0.01,0.01215 0.0248,0.01738 0.0355,0.02868 -0.59901,1.091778 -0.99137,2.3116894 -1.10969,3.6026584 -0.26908,-0.19029 -0.57552,-0.309923 -0.89414,-0.345526 z M 22.634872,5.7851676 c -0.21428,0.203973 -0.22286,0.542005 -0.0207,0.753895 0.20181,0.215562 0.54068,0.224039 0.75496,0.02076 0.21417,-0.20157 0.22309,-0.538756 0.0198,-0.754455 -0.10468,-0.110183 -0.2462,-0.166116 -0.38806,-0.166116 -0.13168,1.15e-4 -0.26359,0.0483 -0.36598,0.145912 z m -12.54196,2.985788 c -0.4227801,-0.300462 -1.0025301,-0.291424 -1.3917801,0.07881 -0.44415,0.418414 -0.4627,1.117783 -0.0416,1.5600614 0.4201,0.44285 1.11876,0.462471 1.5633301,0.0428 0.39222,-0.372068 0.43115,-0.9527884 0.14863,-1.3905474 0.97961,-0.818453 2.22193,-1.281782 3.51278,-1.281782 1.45066,0 2.81757,0.560516 3.84927,1.578423 0.0788,0.07798 0.2057,0.07713 0.28441,-0.0016 0.078,-0.07896 0.0773,-0.206089 -0.002,-0.28393 -1.10722,-1.092774 -2.57457,-1.69467 -4.13197,-1.69467 -1.39475,0 -2.73684,0.503439 -3.79135,1.392389 z M 9.6477719,13.243584 c 0,1.965821 1.3575301,3.60799 3.1818701,4.07911 -0.009,0.284868 0.0897,0.573169 0.3022,0.79603 0.41984,0.442747 1.11886,0.46231 1.56321,0.04279 0.44297,-0.420324 0.46139,-1.118423 0.0416,-1.561285 -0.42112,-0.442404 -1.12151,-0.461967 -1.56338,-0.04153 -0.11493,0.108342 -0.19873,0.236018 -0.25633,0.372617 -1.64445,-0.430849 -2.86681,-1.913194 -2.86681,-3.68773 0,-2.109812 1.72002,-3.8262404 3.83409,-3.8262404 0.11132,0 0.20112,-0.08983 0.20112,-0.200872 0,-0.110882 -0.0898,-0.200724 -0.20112,-0.200724 -2.33585,0 -4.2364901,1.8965374 -4.2364901,4.2278364 z m -1.93305,-1.944393 c -0.21429,0.202142 -0.22136,0.538618 -0.0194,0.753048 0.20198,0.212598 0.53999,0.223044 0.75542,0.02034 0.21288,-0.202989 0.22264,-0.542005 0.0205,-0.754043 -0.10503,-0.110744 -0.24643,-0.166677 -0.38811,-0.166677 -0.13234,0 -0.26496,0.04874 -0.36844,0.147331 z m 5.1586701,0.878905 c -0.29527,0.279697 -0.44855,0.652188 -0.45804,1.02842 -0.0105,0.375821 0.123,0.755302 0.40212,1.049323 0.55849,0.588042 1.48814,0.612639 2.07836,0.0556 0.29494,-0.279492 0.44789,-0.651994 0.45739,-1.027815 0.0102,-0.375786 -0.12299,-0.755347 -0.40225,-1.049585 -0.28864,-0.304135 -0.67705,-0.457392 -1.06637,-0.457392 -0.363,0 -0.72686,0.133202 -1.01121,0.401449 z m 12.44027,1.610971 c -0.21313,0.20284 -0.22171,0.540678 -0.0196,0.7537 0.20421,0.214509 0.54228,0.224234 0.75656,0.02036 0.21302,-0.202268 0.22275,-0.538962 0.0207,-0.754501 -0.10571,-0.110287 -0.24758,-0.166002 -0.38944,-0.166002 -0.13236,0 -0.26485,0.04851 -0.36827,0.146439 z m -0.9602,1.44585 c -0.44423,0.418608 -0.46277,1.117966 -0.0418,1.560026 0.4201,0.442977 1.11888,0.46254 1.56335,0.04279 0.44309,-0.42021 0.46139,-1.118309 0.0419,-1.561399 -0.21817,-0.22881 -0.51093,-0.344588 -0.80392,-0.344359 -0.27309,0 -0.5464,0.100218 -0.75954,0.302944 z m -1.80314,0.899223 c -0.21428,0.202154 -0.22183,0.538848 -0.0196,0.753128 0.20181,0.212565 0.53976,0.222976 0.75542,0.02002 0.2129,-0.202725 0.22286,-0.541593 0.0206,-0.753814 -0.10491,-0.110744 -0.24643,-0.166803 -0.38818,-0.166803 -0.13236,0 -0.26484,0.04897 -0.36827,0.147468 z M 3.5727719,17.347634 c -0.25436,0.239564 -0.26468,0.641126 -0.0255,0.893389 0.24247,0.253979 0.64346,0.264275 0.89865,0.02471 0.25279,-0.24128 0.26567,-0.641469 0.0239,-0.894418 -0.12512,-0.131795 -0.2927,-0.198035 -0.46057,-0.198035 -0.15669,0 -0.31366,0.05777 -0.43652,0.174353 z m 7.7920601,0.230526 c -0.2143,0.202268 -0.22152,0.538733 -0.0197,0.753014 0.2021,0.212564 0.53983,0.22309 0.75526,0.02036 0.21301,-0.20284 0.2228,-0.541708 0.0209,-0.753815 -0.10503,-0.110972 -0.24643,-0.166917 -0.38826,-0.166917 -0.13719,-1.14e-4 -0.26913,0.05263 -0.36828,0.147354 z m 8.16143,5.309421 c -0.25318,0.240022 -0.26439,0.642041 -0.0232,0.894304 0.24254,0.253979 0.64159,0.265191 0.89625,0.02448 0.2557,-0.239564 0.26554,-0.641469 0.0232,-0.894418 -0.12482,-0.131108 -0.29197,-0.197235 -0.45968,-0.197235 -0.15628,0 -0.31313,0.05732 -0.43657,0.172866 z"
     fill="url(#paint0_linear_1758_246)"
     id="path318"
     style="fill:url(#paint0_linear_1758_246);stroke-width:0.114405" /></svg>
