<?xml version="1.0" encoding="UTF-8" standalone="no"?>
<svg
   width="36"
   height="36"
   viewBox="-4 0 36 36"
   version="1.1"
   id="svg16"
   sodipodi:docname="tst.svg"
   xml:space="preserve"
   inkscape:version="1.2 (dc2aedaf03, 2022-05-15)"
   xmlns:inkscape="http://www.inkscape.org/namespaces/inkscape"
   xmlns:sodipodi="http://sodipodi.sourceforge.net/DTD/sodipodi-0.dtd"
   xmlns="http://www.w3.org/2000/svg"
   xmlns:svg="http://www.w3.org/2000/svg"><sodipodi:namedview
     id="namedview18"
     pagecolor="#ffffff"
     bordercolor="#000000"
     borderopacity="0.25"
     inkscape:showpageshadow="2"
     inkscape:pageopacity="0.0"
     inkscape:pagecheckerboard="0"
     inkscape:deskcolor="#d1d1d1"
     showgrid="false"
     inkscape:zoom="2.0599396"
     inkscape:cx="-91.750265"
     inkscape:cy="97.575679"
     inkscape:window-width="1920"
     inkscape:window-height="1043"
     inkscape:window-x="0"
     inkscape:window-y="1080"
     inkscape:window-maximized="1"
     inkscape:current-layer="svg16" /><!-- Uploaded to SVGRepo https://www.svgrepo.com --><title
     id="title2">map-marker</title><desc
     id="desc4">Created with Sketch.</desc><defs
     id="defs6"><style
       id="style635">.cls-1{fill:#262f63;}</style></defs><g
     id="g198"
     stroke="none"
     stroke-width="1"
     fill="none"
     fill-rule="evenodd"
     style="fill:#a1de5e;fill-opacity:1"><g
       id="g196"
       transform="translate(-125,-643)"
       style="fill:#a1de5e;fill-opacity:1"><path
         d="m 139,643 c 9.94114,0 18,5.641 18,12.6 0,11.363 -18,23.4 -18,23.4 0,0 -18,-11.936 -18,-23.4 0,-6.959 8.05886,-12.6 18,-12.6 z"
         id="path194"
         fill="#ff6e6e"
         style="fill:#a1de5e;fill-opacity:1;stroke-width:1.13389" /></g></g><ellipse
     style="fill:#ffffff;stroke:none;stroke-width:4.89367"
     id="ellipse200"
     cx="14"
     cy="13.504443"
     rx="16.09782"
     ry="12.235282" /><g
     id="g1620"
     transform="matrix(0.08224458,0,0,0.08224458,73.538277,-3.7176615)"><g
       id="g4199"
       transform="translate(-845.91733,280.52609)"
       style="opacity:0.504348"><path
         sodipodi:nodetypes="cscscscscscccccsc"
         id="path3834-4"
         transform="translate(0,-192)"
         d="m 219.25,10 c 0,0 -24.25,9 -31.75,10.5 -7.5,1.5 -21,5.25 -21,5.25 0,0 -9.75,-4.25 -22,-8.5 -12.25,-4.25 -29.75,-5.5 -29.75,-5.5 0,0 -3.25,3.5 -22,8 -18.749997,4.5 -27.5,5.75 -27.5,5.75 0,0 -18.5,-9 -31.5,-11.5 -13,-2.5 -24,-2 -24.75,-1.75 0,0 7.5,13 11.75,27.75 C 25,54.75 27,65.5 27,65.5 l 51.46875,5.125 48.96875,-4 52.25,12.03125 C 190.07319,74.238496 231.80421,73.755785 235,65.5 c 0,0 -4.75,-15.25 -7.5,-29.75 C 224.75,21.25 219.25,10 219.25,10 Z"
         style="fill:#b1e479;fill-opacity:1;stroke:none" /><path
         sodipodi:nodetypes="cscccccsccccc"
         id="path3834-7-2"
         transform="translate(0,-192)"
         d="m 27,65.5 c 0,0 -5.5,12.75 -8.25,24.75 -2.75,12 -5.75,23 -5.75,23 l 50.96875,16.375 53.71875,-15.75 52.25,17.53125 C 186.30214,127.14964 202.33444,122.28803 218,116 c 0,0 1.75,-10.5 6.75,-23.75 C 229.75,79 235,65.5 235,65.5 c -3.19579,8.25579 -44.92681,8.7385 -55.3125,13.15625 l -52.25,-12.03125 -47.96875,4 z"
         style="fill:#87d531;fill-opacity:1;stroke:none" /><path
         id="path3834-7-26"
         transform="translate(0,-192)"
         d="m 231.75,165.5 c -17.89941,7.67118 -35.94319,14.90405 -54.3125,21.40625 l -52.25,-18.53125 -50.21875,9 L 26,167.5 c 0,0 -4,10.25 -7.5,24.25 -3.5,14 -5,30.75 -5,30.75 0,0 9.25,-2 28.5,1.25 19.25,3.25 32.25,6 32.25,6 0,0 12.750003,-2.75 24,-6.25 11.25,-3.5 16.25,-6.5 16.25,-6.5 0,0 5.5,0.5 22.5,6.25 17,5.75 29.25,8.5 29.25,8.5 0,0 13,-2.75 26,-5.75 13,-3 26.5,-8 26.5,-8 0,0 -0.75,-5 4.25,-24.5 5,-19.5 8.75,-28 8.75,-28 z"
         style="fill:#ceeeab;fill-opacity:1;stroke:none" /><path
         sodipodi:nodetypes="cscccccsccccc"
         id="path3834-7-26-0"
         transform="translate(0,-192)"
         d="m 13,113.25 c 0,0 5.75,16 9.25,30 3.5,14 3.75,24.25 3.75,24.25 l 48.96875,9.875 50.21875,-9 52.25,18.53125 c 18.36931,-6.5022 36.41309,-13.73507 54.3125,-21.40625 0,0 -0.5,-4.5 -3.75,-19.75 C 224.75,130.5 218,116 218,116 c -15.66556,6.28803 -31.69786,11.14964 -48.0625,15.40625 l -52.25,-17.53125 -53.71875,15.75 z"
         style="fill:#b9e787;fill-opacity:1;stroke:none" /></g><g
       id="g4205"
       style="opacity:0.521739"
       transform="translate(-845.91733,100.52609)"><path
         sodipodi:nodetypes="ccscscscscscccccsc"
         id="path3834-2"
         d="M 13.71875,0.03125 C 10.989746,0.02425 9.28125,0.15625 9,0.25 9,0.25 16.5,13.25 20.75,28 25,42.75 27,53.5 27,53.5 c 0,0 -5.5,12.75 -8.25,24.75 -2.75,12 -5.75,23 -5.75,23 0,0 5.75,16 9.25,30 3.5,14 3.75,24.25 3.75,24.25 0,0 -4,10.25 -7.5,24.25 -3.5,14 -5,30.75 -5,30.75 0,0 9.25,-2 28.5,1.25 19.25,3.25 32.25,6 32.25,6 L 75.75,164.5 63.5,118 79.5,58.25 C 77.279793,42.77003 70.432295,28.20354 65.25,13.5 65.25,13.5 46.75,4.5 33.75,2 25.625,0.4375 18.26709,0.04346 13.71875,0.03125 Z"
         style="fill:#83d32b;fill-opacity:1;stroke:none" /><path
         sodipodi:nodetypes="cscccccsccccc"
         id="path3834-6-2"
         d="m 114.75,-0.25 c 0,0 -3.25,3.5 -22,8 -18.75,4.5 -27.5,5.75 -27.5,5.75 5.182295,14.70354 12.029793,29.27003 14.25,44.75 l -16,59.75 12.25,46.5 -1.5,53.25 c 0,0 12.75,-2.75 24,-6.25 C 109.5,208 114.5,205 114.5,205 l 11.25,-48.5 -8.25,-54.25 11.75,-45 c -3.43969,-9.72678 -8.06447,-56.92976 -14.5,-57.5 z"
         style="fill:#b1e479;fill-opacity:1;stroke:none" /><path
         id="path3834-6-6"
         d="m 219.25,-2 c 0,0 -24.25,9 -31.75,10.5 -7.5,1.5 -21,5.25 -21,5.25 4.92395,-1.35833 11.43679,45.39247 14.25,52.25 l -11.25,53.25 9.5,55 -12.75,45.5 c 0,0 13,-2.75 26,-5.75 13,-3 26.5,-8 26.5,-8 0,0 -0.75,-5 4.25,-24.5 5,-19.5 8.75,-28 8.75,-28 0,0 -0.5,-4.5 -3.75,-19.75 C 224.75,118.5 218,104 218,104 c 0,0 1.75,-10.5 6.75,-23.75 C 229.75,67 235,53.5 235,53.5 c 0,0 -4.75,-15.25 -7.5,-29.75 C 224.75,9.25 219.25,-2 219.25,-2 Z"
         style="fill:#a4df62;fill-opacity:1;stroke:none"
         sodipodi:nodetypes="cscccccscscscscsc" /><path
         sodipodi:nodetypes="cccccscccccsc"
         id="path3834-6-6-9"
         d="m 114.75,-0.25 c 6.43553,0.57024 11.06031,47.77322 14.5,57.5 l -11.75,45 8.25,53.25 -11.25,49.5 c 0,0 5.5,0.5 22.5,6.25 17,5.75 29.25,8.5 29.25,8.5 l 12.75,-45.5 -9.5,-55 L 180.75,66 c -2.81321,-6.85753 -9.32605,-53.60833 -14.25,-52.25 0,0 -9.75,-4.25 -22,-8.5 -12.25,-4.25 -29.75,-5.5 -29.75,-5.5 z"
         style="fill:#ceeeab;fill-opacity:1;stroke:none" /></g></g></svg>
