<?xml version="1.0" encoding="UTF-8" standalone="no"?>
<svg
   width="36"
   height="36"
   viewBox="-4 0 36 36"
   version="1.1"
   id="svg16"
   sodipodi:docname="sf.svg"
   xml:space="preserve"
   inkscape:version="1.2 (dc2aedaf03, 2022-05-15)"
   xmlns:inkscape="http://www.inkscape.org/namespaces/inkscape"
   xmlns:sodipodi="http://sodipodi.sourceforge.net/DTD/sodipodi-0.dtd"
   xmlns="http://www.w3.org/2000/svg"
   xmlns:svg="http://www.w3.org/2000/svg"
   xmlns:rdf="http://www.w3.org/1999/02/22-rdf-syntax-ns#"
   xmlns:cc="http://creativecommons.org/ns#"
   xmlns:dc="http://purl.org/dc/elements/1.1/"><sodipodi:namedview
     id="namedview18"
     pagecolor="#ffffff"
     bordercolor="#000000"
     borderopacity="0.25"
     inkscape:showpageshadow="2"
     inkscape:pageopacity="0.0"
     inkscape:pagecheckerboard="0"
     inkscape:deskcolor="#d1d1d1"
     showgrid="false"
     inkscape:zoom="4.3340053"
     inkscape:cx="4.0378354"
     inkscape:cy="59.067764"
     inkscape:window-width="1920"
     inkscape:window-height="1011"
     inkscape:window-x="0"
     inkscape:window-y="32"
     inkscape:window-maximized="1"
     inkscape:current-layer="g707" /><!-- Uploaded to SVGRepo https://www.svgrepo.com --><title
     id="title2">map-marker</title><desc
     id="desc4">Created with Sketch.</desc><defs
     id="defs6"><style
       id="style635">.cls-1{fill:#262f63;}</style></defs><g
     id="g707"
     stroke="none"
     stroke-width="1"
     fill="none"
     fill-rule="evenodd"
     style="fill:#000080"><g
       id="g705"
       transform="translate(-125,-643)"
       style="fill:#e2231a;fill-opacity:1"><path
         d="m 139,643 c 9.94114,0 18,5.641 18,12.6 0,11.363 -18,23.4 -18,23.4 0,0 -18,-11.936 -18,-23.4 0,-6.959 8.05886,-12.6 18,-12.6 z"
         id="path703"
         fill="#ff6e6e"
         style="fill:#e2231a;fill-opacity:1;stroke-width:1.13389" /></g></g><ellipse
     style="fill:#ffffff;stroke:none;stroke-width:4.89367"
     id="ellipse709"
     cx="14"
     cy="13.504443"
     rx="16.09782"
     ry="12.235282" /><g
     id="g341"
     transform="matrix(0.11734728,0,0,0.11734728,45.382235,-4.8769259)"><path
       id="path3951"
       d="m -236.85141,186.14229 c -0.72549,0.0159 -1.53031,0.0937 -2.44531,0.2832 l -66.94336,10.17578 c -1.073,0.19 -1.95508,1.20135 -1.95508,2.40234 0,1.327 1.07149,2.40235 2.39649,2.40235 h 0.3789 l 65.68165,-8.21875 c 8.83299,-1.769 26.18381,25.15605 27.38281,33.49804 0.631,4.488 -3.72318,8.21635 -7.95117,8.15235 l -108.77344,3.47656 c -1.578,0.064 -2.83935,1.32771 -2.90235,2.9707 0,1.58 1.32435,2.90821 2.90235,2.90821 l 116.3457,0.12695 23.28125,-1.89648 c 5.174,-0.38 10.5363,-6.95318 9.7793,-12.45118 -1.388,-9.98599 -19.11764,-37.22614 -28.26563,-38.86914 l -26.9414,-4.86718 c -0.599,-0.063 -1.24521,-0.10963 -1.97071,-0.0937 z"
       style="fill:#003764;fill-opacity:1" /><path
       d="m -259.29789,127.64823 -16.152,12.9564 18.802,17.5701 z m -68.457,-36.024998 41.011,38.426698 25.995,-19.5926 -1.073,-12.387598 c -0.757,-9.101 12.304,-10.4283 13.124,-1.264 l 8.076,77.738398 c 0.315,3.729 -2.398,7.078 -6.183,7.394 -2.209,0.19 -4.606,-0.695 -6.247,-2.212 l -33.755,-30.0837 -47.573,38.1737 -3.534,50.941 c -0.315,4.55 -4.921,7.963 -9.4007,7.647 -4.5428,-0.316 -8.0761,-4.234 -7.7606,-8.785 l 13.1867,-163.250038 c 0.7571,-10.74431 16.0886,-9.60668 15.2686,1.13763 z m -5.048,73.124498 34.071,-25.66 -30.412,-27.0504 z"
       fill="#e2231a"
       id="path3953" /></g><metadata
     id="metadata1171"><rdf:RDF><cc:Work
         rdf:about=""><dc:title>map-marker</dc:title></cc:Work></rdf:RDF></metadata></svg>
