<?xml version="1.0" encoding="UTF-8" standalone="no"?>
<svg
   width="36"
   height="36"
   viewBox="-4 0 36 36"
   version="1.1"
   id="svg16"
   sodipodi:docname="map-marker-svgrepo-com.svg"
   xml:space="preserve"
   inkscape:version="1.2 (dc2aedaf03, 2022-05-15)"
   xmlns:inkscape="http://www.inkscape.org/namespaces/inkscape"
   xmlns:sodipodi="http://sodipodi.sourceforge.net/DTD/sodipodi-0.dtd"
   xmlns="http://www.w3.org/2000/svg"
   xmlns:svg="http://www.w3.org/2000/svg"><sodipodi:namedview
     id="namedview18"
     pagecolor="#ffffff"
     bordercolor="#000000"
     borderopacity="0.25"
     inkscape:showpageshadow="2"
     inkscape:pageopacity="0.0"
     inkscape:pagecheckerboard="0"
     inkscape:deskcolor="#d1d1d1"
     showgrid="false"
     inkscape:zoom="2.0599396"
     inkscape:cx="-91.750265"
     inkscape:cy="97.575679"
     inkscape:window-width="1920"
     inkscape:window-height="1043"
     inkscape:window-x="0"
     inkscape:window-y="1080"
     inkscape:window-maximized="1"
     inkscape:current-layer="svg16" /><!-- Uploaded to SVGRepo https://www.svgrepo.com --><title
     id="title2">map-marker</title><desc
     id="desc4">Created with Sketch.</desc><defs
     id="defs6"><style
       id="style635">.cls-1{fill:#262f63;}</style></defs><g
     id="g723"
     stroke="none"
     stroke-width="1"
     fill="none"
     fill-rule="evenodd"
     style="fill:#000080"><g
       id="g721"
       transform="translate(-125,-643)"
       style="fill:#94ca4f;fill-opacity:1"><path
         d="m 139,643 c 9.94114,0 18,5.641 18,12.6 0,11.363 -18,23.4 -18,23.4 0,0 -18,-11.936 -18,-23.4 0,-6.959 8.05886,-12.6 18,-12.6 z"
         id="path719"
         fill="#ff6e6e"
         style="fill:#94ca4f;fill-opacity:1;stroke-width:1.13389" /></g></g><ellipse
     style="fill:#ffffff;stroke:none;stroke-width:4.89367"
     id="ellipse725"
     cx="14.000015"
     cy="13.504443"
     rx="16.09782"
     ry="12.235282" /><g
     style="fill:none"
     id="g633"
     transform="matrix(0.06782395,0,0,0.06782395,0.90999147,6.3829284)"><path
       d="m 330.836,120.725 h -45.002 v 47.681 h 44.712 v -10.58 h -34.114 v -26.667 h 34.404 c 13.065,0 23.663,10.58 23.663,23.624 0,13.043 -10.598,23.623 -23.663,23.623 H 275.527 V 31.8841 h 55.309 c 13.065,0 23.663,10.5797 23.663,23.6232 0,13.0434 -10.598,23.6231 -23.663,23.6231 H 296.432 V 52.4638 h 34.114 V 42.029 h -44.712 v 47.6811 h 45.002 c 18.872,0 34.115,-15.3623 34.115,-34.2028 0,-18.8406 -15.243,-34.058 -34.115,-34.058 H 264.931 V 188.841 l 65.905,0.144 c 18.872,0 34.115,-15.362 34.115,-34.202 0,-18.841 -15.243,-34.058 -34.115,-34.058 z m 23.517,-15.797 C 373.08,96.2319 386,77.1014 386,55.0725 386,24.6377 361.322,0 330.836,0 h -65.761 v 10.4348 h 65.761 c 24.679,0 44.567,20 44.567,44.6377 0,24.6376 -19.888,44.6377 -44.567,44.6377 H 285.834 V 110.29 h 45.002 c 24.679,0 44.567,19.855 44.567,44.493 0,24.637 -19.888,44.637 -44.567,44.637 H 265.075 V 210 h 65.761 C 361.322,210 386,185.217 386,154.783 386,132.754 373.08,113.768 354.353,104.928 Z M 52.6955,42.029 H 0.144955 V 52.4638 H 42.2435 V 210 h 10.452 z M 146.619,21.0145 H 0 V 31.4493 H 63.2928 V 210 H 73.8901 V 31.4493 h 62.8579 c 3.193,-3.6232 6.387,-7.1015 9.871,-10.4348 z M 129.054,42.029 H 84.1971 V 210 h 10.452 V 52.4638 h 28.3079 c 1.887,-3.6232 3.919,-7.1015 6.097,-10.4348 z M 177.83,0 H 0 V 10.4348 H 159.539 C 165.2,6.52173 171.443,2.89855 177.83,0 Z m 54.583,42.029 c -34.84,0 -63.003,28.2608 -63.003,62.899 0,34.782 28.163,63.043 63.003,63.043 h 15.678 v -10.435 h -15.533 c -29.033,0 -52.696,-23.623 -52.696,-52.608 0,-28.986 23.663,-52.4642 52.696,-52.4642 h 15.533 V 42.029 Z m 0,-21.0145 c -46.454,0 -84.052,37.6811 -84.052,83.9135 0,46.376 37.598,84.057 84.052,84.057 h 15.678 v -10.579 h -15.533 c -40.792,0 -73.745,-32.899 -73.745,-73.478 0,-40.5802 32.953,-73.4787 73.745,-73.4787 h 15.533 V 21.0145 Z M 248.091,0 v 10.4348 h -15.533 c -52.405,0 -94.649,42.3188 -94.649,94.4932 0,52.173 42.244,94.492 94.649,94.492 h 15.533 V 210 H 232.413 C 174.346,209.855 127.312,162.899 127.312,104.928 127.312,47.1014 174.346,0 232.413,0 Z"
       fill="#94ca4f"
       id="path624" /></g></svg>
