<?xml version="1.0" encoding="UTF-8" standalone="no"?>
<svg
   width="35.999996"
   height="36"
   viewBox="-4 0 35.999996 36"
   version="1.1"
   id="svg16"
   sodipodi:docname="map-marker-svgrepo-com.svg"
   xml:space="preserve"
   inkscape:version="1.2 (dc2aedaf03, 2022-05-15)"
   xmlns:inkscape="http://www.inkscape.org/namespaces/inkscape"
   xmlns:sodipodi="http://sodipodi.sourceforge.net/DTD/sodipodi-0.dtd"
   xmlns="http://www.w3.org/2000/svg"
   xmlns:svg="http://www.w3.org/2000/svg"><sodipodi:namedview
     id="namedview18"
     pagecolor="#ffffff"
     bordercolor="#000000"
     borderopacity="0.25"
     inkscape:showpageshadow="2"
     inkscape:pageopacity="0.0"
     inkscape:pagecheckerboard="0"
     inkscape:deskcolor="#d1d1d1"
     showgrid="false"
     inkscape:zoom="2.0599396"
     inkscape:cx="-91.750265"
     inkscape:cy="97.575679"
     inkscape:window-width="1920"
     inkscape:window-height="1043"
     inkscape:window-x="0"
     inkscape:window-y="1080"
     inkscape:window-maximized="1"
     inkscape:current-layer="svg16" /><!-- Uploaded to SVGRepo https://www.svgrepo.com --><title
     id="title2">map-marker</title><desc
     id="desc4">Created with Sketch.</desc><defs
     id="defs6"><style
       id="style635">.cls-1{fill:#262f63;}</style></defs><g
     id="g715"
     stroke="none"
     stroke-width="1"
     fill="none"
     fill-rule="evenodd"
     style="fill:#000080"><g
       id="g713"
       transform="translate(-125,-643)"
       style="fill:#000080"><path
         d="m 139,643 c 9.94114,0 18,5.641 18,12.6 0,11.363 -18,23.4 -18,23.4 0,0 -18,-11.936 -18,-23.4 0,-6.959 8.05886,-12.6 18,-12.6 z"
         id="path711"
         fill="#ff6e6e"
         style="fill:#262f63;fill-opacity:1;stroke-width:1.13389" /></g></g><ellipse
     style="fill:#ffffff;stroke:none;stroke-width:4.89367"
     id="ellipse717"
     cx="14"
     cy="13.504443"
     rx="16.09782"
     ry="12.235282" /><g
     id="g739"
     transform="matrix(0.17521253,0,0,0.17521253,51.275413,-46.763197)"><path
       class="cls-1"
       d="m -299.79325,359.31423 c -4.59,-26 33.4,-51.42 79.27,-59.51 45.87,-8.09 90.25,2.85 94.83,28.81 4.58,25.96 -33.4,51.4 -79.26,59.51 -45.86,8.11 -90.26,-2.84 -94.84,-28.81 m 167.91,-29.6 c -3.42,-19.4 -40.69,-32 -87.55,-23.72 -46.86,8.28 -77.58,32.83 -74.17,52.23 3.41,19.4 40.69,31.97 87.59,23.71 46.9,-8.26 77.59,-32.83 74.17,-52.22"
       id="path643" /><polygon
       class="cls-1"
       points="63.36,33.01 62.6,42.26 52.26,43.69 50.43,71.73 36.63,73.68 38.45,45.69 28.04,47.25 28.73,37.93 "
       id="polygon645"
       transform="translate(-300.17325,297.18423)" /><path
       class="cls-1"
       d="m -229.24325,354.37423 0.49,0.22 c 6.43,2.84 15,1.57 16.42,-2 0.24,-0.62 -0.2,-1.61 -2.31,-1.9 -2.59,-0.34 -6.54,-0.65 -8.83,-1.08 -7.6,-1.4 -11,-7.32 -6.3,-14.62 5.83,-9.14 18.2,-11.13 30.62,-7.73 l 0.89,0.25 -6.11,9 -0.46,-0.15 c -7.12,-2.26 -12.18,-1.35 -13.38,1.08 -0.57,1.16 0.38,2.22 2.35,2.52 1.97,0.3 6,0.51 8.92,0.92 7,1 10.94,4.5 8.21,12.15 -3.34,9.35 -15.3,12.62 -22,13 a 36.51,36.51 0 0 1 -14.4,-2 l -0.88,-0.24 z"
       id="path647" /><polygon
       class="cls-1"
       points="142.41,21.79 141.65,31.04 131.32,32.48 129.49,60.52 115.68,62.47 117.5,34.48 107.1,36.03 107.79,26.71 "
       id="polygon649"
       transform="translate(-300.17325,297.18423)" /></g></svg>
